<?xml version="1.0" encoding="utf-8"?>
<!-- Generator: Adobe Illustrator 26.0.2, SVG Export Plug-In . SVG Version: 6.00 Build 0)  -->
<svg version="1.1" id="Layer_1" xmlns="http://www.w3.org/2000/svg" xmlns:xlink="http://www.w3.org/1999/xlink" x="0px" y="0px"
	 viewBox="0 0 540 405" style="enable-background:new 0 0 540 405;" xml:space="preserve">
<style type="text/css">
	.st0{fill:#002169;}
</style>
<g>
	<path class="st0" d="M205.3,113.8c0,0.4,0.4,0.7,0.8,0.7h0.6c0.5,0,0.8-0.4,0.8-0.8V76.5c0-0.2-0.1-0.4-0.2-0.6
		c-0.2-0.2-0.4-0.2-0.6-0.2c-1.9,0.1-3.9,0.2-5.7,0.3c-2.9,0.3-5.6,0.4-8.1,0.4l-63.7-0.1l-63.7,0.1c-2.5,0-5.3-0.1-8.1-0.4
		c-1.9-0.2-3.8-0.3-5.7-0.3c-0.2,0-0.4,0.1-0.6,0.2c-0.2,0.2-0.2,0.4-0.2,0.6v37.2c0,0.5,0.4,0.8,0.8,0.8h0.6c0.4,0,0.8-0.3,0.8-0.7
		c0.6-6.2,1.5-11.4,2.6-15.3c1.4-4.7,3.6-8.5,6.4-11.1c2.8-2.6,6.4-4.4,10.5-5.3c3.9-0.9,8.7-1.3,14.2-1.3h18.1
		c3.5,0,6.4,0.7,8.6,1.9c2.5,1.5,3.8,4.5,3.8,8.8v134.7c0,6-0.7,10.8-2,14.5c-1.4,3.9-3.4,6.9-6.2,9.2c-2.7,2.2-6,3.7-9.8,4.5
		c-2.9,0.6-6.2,1.1-10,1.4c-0.4,0-0.8,0.4-0.8,0.8v0.3c0,0.2,0.1,0.4,0.2,0.6s0.4,0.2,0.6,0.2c5.7-0.2,11.5-0.4,17.3-0.5
		c6.5-0.1,15.1-0.2,22.5-0.2s16,0.1,22.5,0.2c5.8,0.1,11.6,0.3,17.3,0.5c0.2,0,0.4-0.1,0.6-0.2s0.2-0.4,0.2-0.6v-0.3
		c0-0.4-0.3-0.8-0.8-0.8c-3.8-0.3-7.1-0.8-10-1.4c-3.8-0.8-7.1-2.4-9.8-4.5c-2.7-2.2-4.8-5.3-6.2-9.2c-1.3-3.8-2-8.5-2-14.5V91.7
		c0-4.4,1.3-7.3,3.8-8.8c2.1-1.3,5-1.9,8.6-1.9h18.1c5.5,0,10.3,0.4,14.2,1.3c4.2,0.9,7.7,2.7,10.5,5.3c2.8,2.6,5,6.4,6.4,11.1
		C203.9,102.5,204.8,107.6,205.3,113.8z"/>
	<path class="st0" d="M313.3,75.8c-5.9,0.2-11.7,0.4-17.4,0.5c-6.6,0.1-13.3,0.2-19.9,0.2c-6.7,0-14.5-0.1-20-0.2
		c-4.8-0.1-9.7-0.2-14.7-0.4c-0.2,0-0.4,0.1-0.6,0.2c-0.2,0.2-0.3,0.4-0.3,0.6v0.5c0,0.4,0.3,0.7,0.7,0.8c4.5,0.7,8.2,1.4,11,2.2
		c3.7,1,6.5,2.8,8.6,5.2c2,2.4,3.2,5.9,3.7,10.4c0.4,4.1,0.6,9.9,0.6,17.2v145.8l0,26.6c0,18.1-3.9,30.5-11.5,36.9
		c-6.1,5.2-13.3,5.2-16.7,5.2h-0.3c-5.8,0-9.8-1.4-12.9-4.6c-2.7-2.7-5-5.8-6.8-9c-1.7-3-3.3-5.8-5-8.5c-0.8-1.2-2.3-2.9-6.6-2.9
		c-2.3,0-4.4,1-6,2.5c-1.8,1.8-2.7,5.1-2.7,7.5c0,3.8,1.4,6.6,4.2,9.2c2.7,2.5,6.1,4.6,10,6c4,1.4,8.1,2.6,12.6,3.2
		c5,0.6,8.3,0.8,10.7,0.8c12.4,0,21.3-1.7,28.7-5.2c6.9-3.3,12.4-8.3,16.2-14.3c3.9-6.1,6.6-13.7,7.9-22.4c1.4-8.9,2.1-19,2.1-30
		V123.3c0-3.9,0.1-7.9,0.2-11.9c0.1-4,0.2-8,0.2-12.1c0.6-7.6,2.3-12.7,5.2-15.9c3-3.2,8.2-5,16-5.6c1,0,1.8,0,2.6-0.1
		c0.4,0,0.8-0.4,0.8-0.8v-0.4c0-0.2-0.1-0.4-0.2-0.6C313.7,75.9,313.5,75.8,313.3,75.8z"/>
	<path class="st0" d="M488.4,201.3l-0.4,0h0c-0.4,0-0.7,0.2-0.8,0.6c0,0.1-3,9.9-4.1,13.4c-1.1,3.5-5.6,13.3-9.8,19
		c-4.8,6.9-11.5,12.6-19.3,16.5c-7.7,3.8-15.8,5.7-24.1,5.7c-10.4,0-20.3-2.9-29.5-8.6c-9.2-5.7-16.5-13.6-21.7-23.4
		c-4.6-9.2-7.6-18.8-9-28.4c-1.3-9.2-2-17.8-2-28.3c0-10.3,1-19.9,3.2-30.9c2.1-10.8,5.7-21.9,10.6-30.5c5-8.7,11.5-14.7,19.6-20.2
		c8.1-5.6,18.2-8.4,30-8.4c7.5,0,14.3,1.4,20.4,4.2c6.1,2.8,11.5,5.4,16.1,10.3c4.6,4.8,8.5,11.8,11.5,18.3c2.9,6.2,4.8,11,5.9,17.2
		c0.1,0.4,0.4,0.7,0.8,0.7h0.4c0.2,0,0.4-0.1,0.6-0.2c0.2-0.2,0.2-0.4,0.2-0.6l-0.9-48.1c0-0.4-0.4-0.8-0.8-0.8l-0.5,0
		c-0.4,0-0.7,0.3-0.8,0.6c0,0-1.2,5-2.1,8.1c-0.3,0.9-1.1,3.4-2.2,3.8c-0.4,0.2-1,0-1.7-0.5c-8.8-5.9-17-10.3-24.4-13.1
		c-7.6-2.8-16.4-4.3-26.3-4.3c-12.2,0-23.7,2.4-34.3,7.2c-10.6,4.8-20,11.4-28.1,19.8c-8,8.4-14.4,18.4-18.9,29.7
		c-4.5,11.4-6.8,23.9-6.8,37.3c0,13.5,2.1,26.2,6.2,37.6c4.1,11.4,9.9,21.4,17.2,29.6c7.3,8.2,16.2,14.7,26.5,19.3
		c10.3,4.6,21.8,7,34.3,7c11.4,0,21.7-1.7,30.4-5c8.5-3.2,17.4-8.5,26.5-15.8c0.6-0.5,1.1-0.6,1.6-0.5c0.8,0.2,1.6,1.3,2.3,3
		c0.5,1.3,2.8,7.8,2.8,7.8c0.1,0.3,0.4,0.5,0.8,0.5l0.4,0h0c0.2,0,0.4-0.1,0.6-0.2c0.2-0.2,0.2-0.4,0.2-0.6l0.1-48
		C489.2,201.7,488.9,201.3,488.4,201.3z"/>
</g>
</svg>
